<svg width="40" height="40" viewBox="0 0 40 40" fill="none" xmlns="http://www.w3.org/2000/svg">
<g clip-path="url(#clip0_47932_2)">
<path d="M20 40C31.0469 40 40 31.0469 40 20C40 8.95312 31.0469 0 20 0C8.95312 0 0 8.95312 0 20C0 31.0469 8.95312 40 20 40ZM29.4531 21.1719C30.1875 21.9062 30.1875 23.0938 29.4531 23.8203C28.7188 24.5469 27.5312 24.5547 26.8047 23.8203L20.0078 17.0234L13.2109 23.8203C12.4766 24.5547 11.2891 24.5547 10.5625 23.8203C9.83594 23.0859 9.82812 21.8984 10.5625 21.1719L18.6719 13.0469C19.4062 12.3125 20.5938 12.3125 21.3203 13.0469L29.4531 21.1719Z" fill="#1298DE"/>
</g>
<defs>
<clipPath id="clip0_47932_2">
<rect width="40" height="40" fill="white"/>
</clipPath>
</defs>
</svg>
