<svg width="70" height="66" viewBox="0 0 70 66" fill="none" xmlns="http://www.w3.org/2000/svg">
<path fill-rule="evenodd" clip-rule="evenodd" d="M18.1575 7.05544C9.89207 7.68286 3.0994 13.7686 1.29938 22.1592C1.06686 23.2428 1.00843 23.9727 1.00058 25.8872C0.988065 28.9102 1.17706 30.0694 1.77973 30.6683C2.61453 31.4978 3.89187 31.3194 4.44303 30.2965C4.68767 29.8425 4.69392 29.7225 4.54285 28.3727C4.13651 24.7415 4.60381 21.8171 6.05671 18.8983C8.65932 13.67 13.8426 10.4367 19.6216 10.4367C22.1918 10.4367 24.2865 10.9447 26.5665 12.1211C28.1641 12.9453 28.8478 13.4839 31.6555 16.1285C33.3608 17.7347 34.2081 18.4423 34.5334 18.5314C35.4222 18.7753 35.7564 18.5609 38.5138 15.9769C41.7192 12.9732 43.1398 12.0086 45.5663 11.1878C48.5268 10.1865 52.2095 10.1865 55.1683 11.188C58.0532 12.1645 60.7013 14.122 62.5846 16.6702C64.9564 19.8795 66.0269 24.1986 65.465 28.2914C65.2205 30.0712 64.5458 32.4505 63.8684 33.9218L63.7009 34.2855H58.0187C51.3592 34.2855 51.9851 34.1349 50.6482 36.0591C50.198 36.7071 49.7709 37.2357 49.6991 37.2336C49.6274 37.2315 48.7431 35.6622 47.734 33.7462C46.7249 31.8302 45.8019 30.1554 45.6826 30.0245C45.3988 29.713 44.557 29.4675 44.134 29.5731C43.3173 29.7768 43.0803 30.1742 40.5024 35.6643C39.1201 38.6083 37.9517 40.9753 37.9061 40.9245C37.8604 40.8737 37.0656 37.3803 36.1399 33.1613C35.2142 28.9424 34.3611 25.2324 34.2444 24.9171C33.9885 24.2262 33.4207 23.8382 32.6652 23.8382C31.5393 23.8382 31.5911 23.7567 28.4001 30.5538C26.7929 33.9772 25.4317 36.7338 25.3753 36.6797C25.3188 36.6255 24.5096 35.1333 23.577 33.3635C22.5473 31.4096 21.7467 30.0459 21.5386 29.8916C21.35 29.7516 20.9613 29.6067 20.6748 29.5694C19.8541 29.4625 19.3988 29.8738 17.7582 32.205L16.2941 34.2852L10.5043 34.2859C4.93203 34.2864 4.69805 34.2965 4.274 34.5535C3.81334 34.8325 3.45012 35.4983 3.45012 36.0634C3.45012 36.2459 3.70993 36.8876 4.02736 37.4895C5.77122 40.7955 9.00338 44.9431 12.9596 48.9508C17.6417 53.6942 22.0771 57.2955 28.0068 61.1687C30.527 62.8147 34.2577 64.9603 34.6504 64.9895C35.4947 65.0521 35.8902 64.8791 38.7142 63.2116C45.0653 59.4618 51.2626 54.7138 56.27 49.7617C58.1928 47.8601 60.9013 44.8668 61.5805 43.8927C62.4326 42.6709 61.6778 41.1628 60.2144 41.1628C59.9497 41.1628 59.6201 41.223 59.4818 41.2965C59.3435 41.3701 58.7041 42.0395 58.061 42.7844C55.9679 45.2083 54.1297 47.1292 52.2306 48.8769C47.3582 53.3612 41.6907 57.5442 36.2872 60.6443L34.9916 61.3874L33.4957 60.5186C23.5414 54.7369 14.5303 46.8055 8.99073 38.95C8.57879 38.3659 8.24166 37.851 8.24166 37.806C8.24166 37.7609 10.3099 37.7242 12.8378 37.7242C16.4903 37.7242 17.5262 37.6859 17.8828 37.5378C18.2101 37.402 18.6008 36.972 19.325 35.9511L20.3185 34.5508L22.0806 37.9113C23.0498 39.7596 23.9491 41.4455 24.0789 41.6577C24.3971 42.1775 25.174 42.5342 25.7531 42.4263C26.6719 42.255 26.8417 41.9782 29.4864 36.3396C30.8688 33.3926 32.0296 30.9814 32.0662 30.9814C32.1029 30.9814 32.9046 34.507 33.848 38.8163C34.7914 43.1256 35.6696 46.9002 35.7997 47.2041C36.1879 48.1126 37.3211 48.4583 38.2147 47.9409C38.6575 47.6845 38.8645 47.2785 42.4546 39.6189C43.5855 37.2057 44.5622 35.2806 44.6247 35.341C44.6873 35.4014 45.4985 36.8952 46.4276 38.6607C47.5343 40.7638 48.2441 41.9652 48.4863 42.145C48.9832 42.5134 49.8869 42.513 50.3908 42.144C50.5975 41.9926 51.4238 40.9363 52.2272 39.7965L53.6879 37.7242H59.3944C64.421 37.7242 65.1561 37.6981 65.5636 37.5061C66.1483 37.2303 66.2814 37.0231 67.0895 35.1284C67.8149 33.4273 68.4117 31.4544 68.7614 29.6014C69.0826 27.899 69.0788 24.0682 68.7543 22.4533C67.5632 16.528 63.961 11.6556 58.838 9.04073C53.5093 6.32089 47.2255 6.32075 41.8973 9.04034C40.1297 9.94259 38.7944 10.9419 36.7833 12.8677C35.8761 13.7364 35.0711 14.4471 34.9944 14.4471C34.9177 14.4471 34.1228 13.7469 33.2277 12.8912C31.3841 11.1285 30.3791 10.3286 28.9789 9.50932C25.7494 7.61964 21.9813 6.76513 18.1575 7.05544Z" fill="#1298DE"/>
</svg>
