<svg width="70" height="66" viewBox="0 0 70 66" fill="none" xmlns="http://www.w3.org/2000/svg">
<path fill-rule="evenodd" clip-rule="evenodd" d="M31.4355 3.21135C31.2231 3.34482 30.1488 4.65673 29.0209 6.15995L26.9891 8.86799L25.9212 9.13802C21.0631 10.3667 15.8312 14.2453 11.8033 19.6043C11.0005 20.6724 10.9652 20.7018 10.1939 20.9422C9.76015 21.0774 9.00287 21.3978 8.5111 21.6541C7.30056 22.285 5.63866 23.9357 5.03196 25.1096C3.37411 28.3173 3.71973 31.6773 6.02576 34.7709C6.78613 35.7911 9.22092 38.2482 10.3645 39.1494C12.1854 40.5845 14.8171 42.2166 17.382 43.5014C20.6695 45.1481 21.5748 46.0532 24.2554 50.3739C26.0028 53.1904 27.1561 54.7047 28.8241 56.3729C32.7682 60.3174 37.5123 62.7424 43.2035 63.7231C45.2062 64.0682 49.367 64.0957 51.4296 63.7775C55.0985 63.2115 58.6462 62.0291 61.2397 60.5076C64.0952 58.8325 65.4956 55.7816 64.8411 52.6622C64.3895 50.5105 63.107 48.9401 60.4902 47.3349C59.6705 46.8322 57.047 45.2085 54.6603 43.7268C51.3678 41.683 50.2287 41.0329 49.9397 41.0329C49.7168 41.0329 48.4773 41.5132 46.9476 42.1926C44.3498 43.3462 44.3311 43.3523 43.3824 43.3511C42.5879 43.35 42.3035 43.2928 41.6786 43.0078C40.4036 42.4263 39.9929 41.855 38.6234 38.7573C36.2992 33.5003 35.2788 31.7838 33.3112 29.821C31.6493 28.1631 29.9025 27.0871 26.5229 25.6393C24.64 24.8328 23.7486 24.2403 23.2335 23.4533C22.7488 22.713 22.6185 22.2398 22.4788 20.7157C22.3567 19.3826 22.1655 19.0095 21.4684 18.744C20.5879 18.4087 19.5797 18.9715 19.4043 19.896C19.2795 20.5533 19.5509 22.6708 19.8819 23.6231C20.5991 25.6864 22.0958 27.0978 24.8002 28.2611C29.3453 30.216 31.1407 31.5284 32.8902 34.1745C33.6786 35.3668 34.1836 36.3776 35.7029 39.8033C37.1683 43.1074 37.3309 43.3921 38.3133 44.3738C39.7028 45.7621 41.3882 46.4507 43.3824 46.4451C44.8442 46.4411 45.3273 46.3053 47.8031 45.2032C49.3062 44.5341 49.7487 44.3832 49.9453 44.4729C50.1536 44.5678 58.4439 49.6962 58.5631 49.8039C58.6844 49.9133 56.6597 51.3371 55.6493 51.8529C52.8856 53.2641 49.8718 53.9028 46.6693 53.7561C43.5105 53.6113 40.9966 52.7841 38.436 51.047C35.9074 49.3316 35.0563 48.3322 32.1233 43.6345C30.8046 41.5226 29.7566 40.191 28.1977 38.6469C26.3933 36.8598 25.1963 36.0177 22.3371 34.5241C18.866 32.711 17.0285 31.492 15.4455 29.9523C13.3264 27.8912 12.4089 25.5984 12.935 23.6783C13.2015 22.7055 15.0872 20.2642 17.2731 18.0619C19.4707 15.848 21.3864 14.4147 23.6457 13.2942C25.4366 12.4061 25.4401 12.4055 25.4401 12.9788C25.4401 14.5245 26.1408 16.0935 27.3929 17.3509C28.3554 18.3177 29.0949 18.8314 30.6407 19.6068C32.813 20.6964 36.656 21.7549 40.4615 22.3115C42.261 22.5748 43.0642 22.5693 43.4032 22.2915C43.5132 22.2014 45.6054 19.4565 48.0527 16.1919C52.1904 10.6724 52.5026 10.2224 52.5026 9.77496C52.5026 8.8396 51.9067 8.20326 51.0122 8.18334C50.7291 8.17702 50.3892 8.26159 50.2005 8.38528C50.0219 8.50229 48.0992 10.9713 45.9278 13.8719C43.7565 16.7726 41.9355 19.1945 41.8814 19.254C41.6774 19.4786 37.7342 18.763 35.2755 18.0553C30.3224 16.6296 27.9213 14.4503 28.7045 12.0913C28.8367 11.693 29.6578 10.4888 31.2735 8.32361C32.5795 6.57324 33.6673 5.01813 33.6907 4.86772C33.893 3.56381 32.5015 2.54173 31.4355 3.21135ZM9.73535 25.4972C9.88664 27.6121 10.9198 29.6672 12.8511 31.6948C14.8028 33.7436 16.803 35.1297 20.881 37.2594C22.1519 37.9231 23.6452 38.8067 24.1996 39.2229C26.3509 40.8382 28.0294 42.8358 30.1474 46.3013C30.8021 47.3726 31.7259 48.7656 32.2004 49.3969C33.836 51.5737 36.3476 53.6401 38.9427 54.9441C44.29 57.6309 51.2629 57.5207 56.9732 54.6589C58.3668 53.9605 59.2449 53.3574 60.2518 52.407L61.0688 51.6359L61.3711 52.1517C62.0421 53.2975 62.0703 54.747 61.4461 56.0155C60.9574 57.0089 60.3055 57.5596 58.6711 58.3599C53.3702 60.9558 47.2515 61.6204 41.5345 60.2211C39.4078 59.7006 36.8315 58.5679 34.8583 57.2859C31.6049 55.1723 29.4343 52.9039 27.238 49.3225C24.8402 45.4126 23.5693 43.8313 21.7171 42.4532C21.2104 42.0762 20.0329 41.3804 19.1004 40.907C14.1356 38.3866 11.0255 36.0773 8.76909 33.2356C7.9348 32.1849 7.47939 31.3618 7.24274 30.477C6.91787 29.2618 7.11923 27.7625 7.76992 26.553C8.08001 25.9764 9.35385 24.5729 9.56701 24.5729C9.62328 24.5729 9.69899 24.9889 9.73535 25.4972ZM43.8403 24.9956C43.5884 25.0724 42.5777 25.4974 41.5941 25.9399C38.4622 27.3491 38.5976 27.2703 38.3172 27.8496C38.0998 28.2989 38.0819 28.4416 38.1919 28.8501C38.4045 29.6402 39.2351 30.1835 39.9549 30.0034C40.2763 29.923 44.1438 28.2239 45.0191 27.7786C45.5632 27.5018 45.8263 27.0239 45.8263 26.3123C45.8263 25.8585 45.7623 25.7096 45.4203 25.3674C44.9563 24.9031 44.4974 24.7952 43.8403 24.9956ZM43.1475 31.4638C40.9086 32.4584 40.4888 32.686 40.2565 33.0309C39.5451 34.087 40.4107 35.5625 41.6433 35.395C42.269 35.3099 46.8848 33.2193 47.277 32.8433C47.9009 32.2454 47.8701 31.3648 47.2022 30.6966C46.5474 30.0414 46.2022 30.1066 43.1475 31.4638ZM45.0514 36.8149C43.6745 37.438 42.4262 38.0617 42.2776 38.2009C42.1289 38.3402 41.9485 38.6506 41.8766 38.8907C41.7666 39.2581 41.7841 39.4136 41.9874 39.8734C42.2865 40.5498 42.7883 40.8466 43.4916 40.7631C44.0754 40.6937 48.7521 38.619 49.1367 38.2588C49.8074 37.6305 49.7069 36.4558 48.9382 35.9383C48.2385 35.4671 47.8232 35.5608 45.0514 36.8149Z" fill="#1298DE"/>
</svg>
