<svg width="70" height="66" viewBox="0 0 70 66" fill="none" xmlns="http://www.w3.org/2000/svg">
<mask id="path-1-outside-1_1_153" maskUnits="userSpaceOnUse" x="3" y="2" width="64" height="64" fill="black">
<rect fill="white" x="3" y="2" width="64" height="64"/>
<path fill-rule="evenodd" clip-rule="evenodd" d="M9.74701 3.13745C9.39186 3.20425 8.63325 3.48463 8.06113 3.7605C6.09527 4.70863 4.51555 6.76098 4.13806 8.85765C4.05631 9.31156 4 11.5828 4 14.4253C4 18.7855 4.0235 19.3179 4.25545 20.2256C4.61616 21.6364 5.07463 22.4185 6.19329 23.5314C7.30485 24.6371 8.36786 25.2292 9.68244 25.4747C10.1441 25.5609 10.5835 25.647 10.6588 25.6662C10.7342 25.6854 11.7167 27.1461 12.8425 28.9124C13.9683 30.6787 15.0065 32.2546 15.1496 32.4145C15.4261 32.7233 15.9845 32.7975 16.3918 32.5793C16.5211 32.5101 17.5942 30.9446 18.7764 29.1005L20.9258 25.7476L26.3785 25.697C31.1513 25.6527 31.9196 25.618 32.5413 25.4177C34.7235 24.7147 36.439 23.1127 37.2926 20.9808L37.6423 20.1073L37.6847 14.7452C37.7315 8.82354 37.7067 8.55427 36.9699 7.00351C36.3777 5.75729 35.0366 4.38974 33.8259 3.79758C32.1443 2.97516 32.3831 2.98977 20.8536 3.00359C14.9312 3.0107 10.1126 3.06871 9.74701 3.13745ZM32.449 5.42083C33.4951 5.84321 34.6197 6.91668 35.1542 8.00306L35.5763 8.86075V14.3548V19.8489L35.2153 20.5844C34.4517 22.1401 33.0487 23.2217 31.3937 23.5307C30.9992 23.6044 28.3982 23.6606 25.3848 23.6606C21.0574 23.6606 20.0243 23.6939 19.8169 23.8402C19.6768 23.9389 18.7485 25.3037 17.7541 26.873C16.7597 28.4423 15.917 29.7272 15.8815 29.7285C15.8459 29.7296 15.035 28.502 14.0794 27.0005C13.1238 25.4988 12.2495 24.1561 12.1365 24.0164C11.9856 23.83 11.6311 23.7182 10.8034 23.5958C8.77531 23.2962 7.34799 22.2903 6.54534 20.5951L6.13091 19.7197V14.3576V8.99539L6.53966 8.13227C6.76438 7.65769 7.18565 7.01165 7.47558 6.69689C8.04525 6.0785 9.21609 5.38827 10.0205 5.19639C10.3106 5.12727 14.9852 5.08579 21.1119 5.09794L31.7019 5.11913L32.449 5.42083ZM40.9358 7.25107C40.5431 7.64399 40.5494 8.32596 40.9495 8.73697C41.1954 8.98957 41.415 8.99681 50.6576 9.05999L60.1141 9.1246L60.8525 9.47088C62.2633 10.1324 63.3466 11.4191 63.7287 12.8872C64.0136 13.9813 64.0136 22.6155 63.7287 23.7097C63.471 24.6999 63.0239 25.4388 62.2366 26.1755C61.2251 27.1221 60.3951 27.4386 58.6778 27.5325C57.8079 27.58 57.1573 27.6768 57.0373 27.7764C56.9279 27.8672 56.247 28.8707 55.5241 30.0064C54.8012 31.142 54.1587 32.054 54.0965 32.0329C54.0342 32.0119 53.3855 31.0653 52.655 29.9297C51.8785 28.7227 51.1934 27.7973 51.0064 27.7026C50.7637 27.5799 49.2185 27.5396 44.6165 27.5361L38.5466 27.5314L37.6426 27.2116C36.5106 26.8113 36.2257 26.8107 35.8287 27.208C35.1559 27.8811 35.6129 28.6701 36.9984 29.2279C37.7685 29.5379 37.7971 29.5395 43.9027 29.6039L50.0338 29.6688L51.6791 32.2353C52.5841 33.6469 53.4283 34.8806 53.5551 34.9768C53.848 35.1991 54.3809 35.2085 54.6705 34.9965C54.7936 34.9064 55.6368 33.6709 56.5442 32.2508L58.1942 29.6688L59.2833 29.5834C62.4973 29.3312 65.1462 27.0425 65.8008 23.9522C66.0664 22.6985 66.0664 13.8983 65.8008 12.6446C65.2432 10.012 62.9151 7.66531 60.3337 7.13362C59.8768 7.03956 56.5822 6.99265 50.4218 6.99265C41.3663 6.99265 41.1894 6.99743 40.9358 7.25107ZM11.4962 11.4603C10.2677 11.9935 9.55445 13.0594 9.55742 14.3576C9.5613 16.0984 10.8715 17.3819 12.6528 17.3901C13.3419 17.3933 13.6014 17.3299 14.1013 17.0358C16.0111 15.9126 16.2553 13.4234 14.5954 12.0018C13.7438 11.2726 12.4499 11.0464 11.4962 11.4603ZM19.7615 11.4603C18.5331 11.9935 17.8198 13.0594 17.8228 14.3576C17.8267 16.0984 19.1368 17.3819 20.9182 17.3901C21.6073 17.3933 21.8667 17.3299 22.3667 17.0358C24.2765 15.9126 24.5207 13.4234 22.8608 12.0018C22.0092 11.2726 20.7153 11.0464 19.7615 11.4603ZM28.0269 11.4603C26.7985 11.9935 26.0852 13.0594 26.0881 14.3576C26.092 16.0984 27.4022 17.3819 29.1835 17.3901C29.8727 17.3933 30.1321 17.3299 30.632 17.0358C32.5418 15.9126 32.7861 13.4234 31.1261 12.0018C30.2746 11.2726 28.9806 11.0464 28.0269 11.4603ZM13.1602 13.4482C13.5163 13.6388 13.7223 14.2453 13.5684 14.6501C13.1434 15.7684 11.6196 15.474 11.6196 14.2736C11.6196 13.5674 12.5009 13.0952 13.1602 13.4482ZM21.4256 13.4482C21.7816 13.6388 21.9876 14.2453 21.8338 14.6501C21.4088 15.7684 19.885 15.474 19.885 14.2736C19.885 13.5674 20.7663 13.0952 21.4256 13.4482ZM29.6909 13.4482C30.047 13.6388 30.253 14.2453 30.0992 14.6501C29.6742 15.7684 28.1504 15.474 28.1504 14.2736C28.1504 13.5674 29.0317 13.0952 29.6909 13.4482ZM14.9002 37.3519C11.4546 37.8803 8.90343 40.6424 8.69008 44.0756C8.57966 45.8515 9.16882 47.722 10.2574 49.0509L10.6887 49.5775L9.73474 49.7295C8.49907 49.9261 7.51355 50.4011 6.70407 51.1898C5.81799 52.0533 5.52922 52.7601 4.7484 55.9749C3.89152 59.5033 3.84167 60.5872 4.47487 61.9296C4.69881 62.4042 5.12758 63.0593 5.42784 63.3852C6.17198 64.1929 7.53977 64.8585 8.6698 64.9631C9.47503 65.0375 9.55122 65.0212 9.8644 64.7079C10.5268 64.0452 10.0829 62.94 9.15436 62.94C7.58071 62.94 6.06634 61.4341 6.06634 59.8691C6.06634 59.2713 7.35561 53.8954 7.62759 53.3588C7.75919 53.0991 8.08658 52.705 8.35494 52.4829C9.26826 51.7272 9.53624 51.6989 15.7694 51.6989C19.3033 51.6989 21.664 51.7508 22.0676 51.8374C22.8875 52.0132 23.6534 52.5665 24.0595 53.2763C24.5122 54.0673 25.7473 59.4511 25.6466 60.1947C25.4409 61.7146 24.0847 62.94 22.6086 62.94C21.68 62.94 21.2361 64.0452 21.8985 64.7079C22.2117 65.0212 22.2879 65.0375 23.0931 64.9631C25.8367 64.7093 28.0299 62.0665 27.7157 59.3926C27.572 58.17 26.3333 53.1867 26.0029 52.5022C25.3095 51.0656 23.799 50.0113 22.0313 49.7299L21.0791 49.5783L21.5767 48.919C23.8034 45.9682 23.56 42.0945 20.9831 39.473C19.3682 37.8301 17.051 37.0222 14.9002 37.3519ZM53.1275 37.351C51.4884 37.6047 50.1828 38.2771 49.0071 39.473C46.8621 41.6552 46.3002 44.6946 47.5373 47.4241C47.7455 47.8836 48.1397 48.5563 48.4135 48.919L48.9111 49.5783L47.9589 49.7299C46.1912 50.0113 44.6807 51.0656 43.9873 52.5022C43.657 53.1867 42.4182 58.17 42.2746 59.3926C41.9604 62.0665 44.1535 64.7093 46.8971 64.9631C47.7023 65.0375 47.7785 65.0212 48.0917 64.7079C48.7541 64.0452 48.3102 62.94 47.3817 62.94C45.9055 62.94 44.5494 61.7146 44.3436 60.1947C44.2429 59.4511 45.478 54.0673 45.9307 53.2763C46.3369 52.5665 47.1027 52.0132 47.9227 51.8374C48.3262 51.7508 50.6869 51.6989 54.2209 51.6989C60.454 51.6989 60.722 51.7272 61.6353 52.4829C61.9036 52.705 62.231 53.0991 62.3626 53.3588C62.6346 53.8954 63.9239 59.2713 63.9239 59.8691C63.9239 61.4341 62.4095 62.94 60.8359 62.94C59.9073 62.94 59.4634 64.0452 60.1258 64.7079C60.439 65.0212 60.5152 65.0375 61.3204 64.9631C62.4505 64.8585 63.8182 64.1929 64.5624 63.3852C64.8626 63.0593 65.2914 62.4042 65.5153 61.9296C66.1487 60.5866 66.0988 59.5049 65.2399 55.9628C64.8694 54.4349 64.4104 52.865 64.22 52.4741C63.5116 51.02 62.0633 50.0172 60.2555 49.7295L59.3015 49.5775L59.7251 49.0554C61.6454 46.6878 61.8378 43.1738 60.1881 40.6017C59.5893 39.6683 58.305 38.5195 57.3348 38.0498C56.0346 37.4203 54.4166 37.1515 53.1275 37.351ZM17.6604 39.6857C19.4864 40.3233 20.7903 42.0381 21.0038 44.0825C21.214 46.095 20.0028 48.2077 18.1019 49.1439C17.2961 49.5407 17.1586 49.5669 15.8815 49.5669C14.605 49.5669 14.4665 49.5406 13.6627 49.1447C12.5722 48.6076 11.5017 47.4832 11.0859 46.4381C10.8499 45.8452 10.7877 45.4368 10.7852 44.4632C10.7824 43.3498 10.8201 43.1552 11.1911 42.3699C12.3617 39.892 15.0534 38.7752 17.6604 39.6857ZM55.1889 39.4872C56.7989 39.8285 58.0829 40.8537 58.7991 42.3699C59.1701 43.1552 59.2078 43.3498 59.205 44.4632C59.2025 45.4368 59.1403 45.8452 58.9044 46.4381C58.4885 47.4832 57.418 48.6076 56.3275 49.1447C55.5241 49.5404 55.385 49.5669 54.1115 49.5669C52.9056 49.5669 52.6692 49.5278 52.0097 49.2186C51.6011 49.027 50.9575 48.5775 50.5792 48.2197C47.5731 45.3751 49.0053 40.3555 53.0756 39.4708C54.0166 39.2664 54.1519 39.2675 55.1889 39.4872Z"/>
</mask>
<path fill-rule="evenodd" clip-rule="evenodd" d="M9.74701 3.13745C9.39186 3.20425 8.63325 3.48463 8.06113 3.7605C6.09527 4.70863 4.51555 6.76098 4.13806 8.85765C4.05631 9.31156 4 11.5828 4 14.4253C4 18.7855 4.0235 19.3179 4.25545 20.2256C4.61616 21.6364 5.07463 22.4185 6.19329 23.5314C7.30485 24.6371 8.36786 25.2292 9.68244 25.4747C10.1441 25.5609 10.5835 25.647 10.6588 25.6662C10.7342 25.6854 11.7167 27.1461 12.8425 28.9124C13.9683 30.6787 15.0065 32.2546 15.1496 32.4145C15.4261 32.7233 15.9845 32.7975 16.3918 32.5793C16.5211 32.5101 17.5942 30.9446 18.7764 29.1005L20.9258 25.7476L26.3785 25.697C31.1513 25.6527 31.9196 25.618 32.5413 25.4177C34.7235 24.7147 36.439 23.1127 37.2926 20.9808L37.6423 20.1073L37.6847 14.7452C37.7315 8.82354 37.7067 8.55427 36.9699 7.00351C36.3777 5.75729 35.0366 4.38974 33.8259 3.79758C32.1443 2.97516 32.3831 2.98977 20.8536 3.00359C14.9312 3.0107 10.1126 3.06871 9.74701 3.13745ZM32.449 5.42083C33.4951 5.84321 34.6197 6.91668 35.1542 8.00306L35.5763 8.86075V14.3548V19.8489L35.2153 20.5844C34.4517 22.1401 33.0487 23.2217 31.3937 23.5307C30.9992 23.6044 28.3982 23.6606 25.3848 23.6606C21.0574 23.6606 20.0243 23.6939 19.8169 23.8402C19.6768 23.9389 18.7485 25.3037 17.7541 26.873C16.7597 28.4423 15.917 29.7272 15.8815 29.7285C15.8459 29.7296 15.035 28.502 14.0794 27.0005C13.1238 25.4988 12.2495 24.1561 12.1365 24.0164C11.9856 23.83 11.6311 23.7182 10.8034 23.5958C8.77531 23.2962 7.34799 22.2903 6.54534 20.5951L6.13091 19.7197V14.3576V8.99539L6.53966 8.13227C6.76438 7.65769 7.18565 7.01165 7.47558 6.69689C8.04525 6.0785 9.21609 5.38827 10.0205 5.19639C10.3106 5.12727 14.9852 5.08579 21.1119 5.09794L31.7019 5.11913L32.449 5.42083ZM40.9358 7.25107C40.5431 7.64399 40.5494 8.32596 40.9495 8.73697C41.1954 8.98957 41.415 8.99681 50.6576 9.05999L60.1141 9.1246L60.8525 9.47088C62.2633 10.1324 63.3466 11.4191 63.7287 12.8872C64.0136 13.9813 64.0136 22.6155 63.7287 23.7097C63.471 24.6999 63.0239 25.4388 62.2366 26.1755C61.2251 27.1221 60.3951 27.4386 58.6778 27.5325C57.8079 27.58 57.1573 27.6768 57.0373 27.7764C56.9279 27.8672 56.247 28.8707 55.5241 30.0064C54.8012 31.142 54.1587 32.054 54.0965 32.0329C54.0342 32.0119 53.3855 31.0653 52.655 29.9297C51.8785 28.7227 51.1934 27.7973 51.0064 27.7026C50.7637 27.5799 49.2185 27.5396 44.6165 27.5361L38.5466 27.5314L37.6426 27.2116C36.5106 26.8113 36.2257 26.8107 35.8287 27.208C35.1559 27.8811 35.6129 28.6701 36.9984 29.2279C37.7685 29.5379 37.7971 29.5395 43.9027 29.6039L50.0338 29.6688L51.6791 32.2353C52.5841 33.6469 53.4283 34.8806 53.5551 34.9768C53.848 35.1991 54.3809 35.2085 54.6705 34.9965C54.7936 34.9064 55.6368 33.6709 56.5442 32.2508L58.1942 29.6688L59.2833 29.5834C62.4973 29.3312 65.1462 27.0425 65.8008 23.9522C66.0664 22.6985 66.0664 13.8983 65.8008 12.6446C65.2432 10.012 62.9151 7.66531 60.3337 7.13362C59.8768 7.03956 56.5822 6.99265 50.4218 6.99265C41.3663 6.99265 41.1894 6.99743 40.9358 7.25107ZM11.4962 11.4603C10.2677 11.9935 9.55445 13.0594 9.55742 14.3576C9.5613 16.0984 10.8715 17.3819 12.6528 17.3901C13.3419 17.3933 13.6014 17.3299 14.1013 17.0358C16.0111 15.9126 16.2553 13.4234 14.5954 12.0018C13.7438 11.2726 12.4499 11.0464 11.4962 11.4603ZM19.7615 11.4603C18.5331 11.9935 17.8198 13.0594 17.8228 14.3576C17.8267 16.0984 19.1368 17.3819 20.9182 17.3901C21.6073 17.3933 21.8667 17.3299 22.3667 17.0358C24.2765 15.9126 24.5207 13.4234 22.8608 12.0018C22.0092 11.2726 20.7153 11.0464 19.7615 11.4603ZM28.0269 11.4603C26.7985 11.9935 26.0852 13.0594 26.0881 14.3576C26.092 16.0984 27.4022 17.3819 29.1835 17.3901C29.8727 17.3933 30.1321 17.3299 30.632 17.0358C32.5418 15.9126 32.7861 13.4234 31.1261 12.0018C30.2746 11.2726 28.9806 11.0464 28.0269 11.4603ZM13.1602 13.4482C13.5163 13.6388 13.7223 14.2453 13.5684 14.6501C13.1434 15.7684 11.6196 15.474 11.6196 14.2736C11.6196 13.5674 12.5009 13.0952 13.1602 13.4482ZM21.4256 13.4482C21.7816 13.6388 21.9876 14.2453 21.8338 14.6501C21.4088 15.7684 19.885 15.474 19.885 14.2736C19.885 13.5674 20.7663 13.0952 21.4256 13.4482ZM29.6909 13.4482C30.047 13.6388 30.253 14.2453 30.0992 14.6501C29.6742 15.7684 28.1504 15.474 28.1504 14.2736C28.1504 13.5674 29.0317 13.0952 29.6909 13.4482ZM14.9002 37.3519C11.4546 37.8803 8.90343 40.6424 8.69008 44.0756C8.57966 45.8515 9.16882 47.722 10.2574 49.0509L10.6887 49.5775L9.73474 49.7295C8.49907 49.9261 7.51355 50.4011 6.70407 51.1898C5.81799 52.0533 5.52922 52.7601 4.7484 55.9749C3.89152 59.5033 3.84167 60.5872 4.47487 61.9296C4.69881 62.4042 5.12758 63.0593 5.42784 63.3852C6.17198 64.1929 7.53977 64.8585 8.6698 64.9631C9.47503 65.0375 9.55122 65.0212 9.8644 64.7079C10.5268 64.0452 10.0829 62.94 9.15436 62.94C7.58071 62.94 6.06634 61.4341 6.06634 59.8691C6.06634 59.2713 7.35561 53.8954 7.62759 53.3588C7.75919 53.0991 8.08658 52.705 8.35494 52.4829C9.26826 51.7272 9.53624 51.6989 15.7694 51.6989C19.3033 51.6989 21.664 51.7508 22.0676 51.8374C22.8875 52.0132 23.6534 52.5665 24.0595 53.2763C24.5122 54.0673 25.7473 59.4511 25.6466 60.1947C25.4409 61.7146 24.0847 62.94 22.6086 62.94C21.68 62.94 21.2361 64.0452 21.8985 64.7079C22.2117 65.0212 22.2879 65.0375 23.0931 64.9631C25.8367 64.7093 28.0299 62.0665 27.7157 59.3926C27.572 58.17 26.3333 53.1867 26.0029 52.5022C25.3095 51.0656 23.799 50.0113 22.0313 49.7299L21.0791 49.5783L21.5767 48.919C23.8034 45.9682 23.56 42.0945 20.9831 39.473C19.3682 37.8301 17.051 37.0222 14.9002 37.3519ZM53.1275 37.351C51.4884 37.6047 50.1828 38.2771 49.0071 39.473C46.8621 41.6552 46.3002 44.6946 47.5373 47.4241C47.7455 47.8836 48.1397 48.5563 48.4135 48.919L48.9111 49.5783L47.9589 49.7299C46.1912 50.0113 44.6807 51.0656 43.9873 52.5022C43.657 53.1867 42.4182 58.17 42.2746 59.3926C41.9604 62.0665 44.1535 64.7093 46.8971 64.9631C47.7023 65.0375 47.7785 65.0212 48.0917 64.7079C48.7541 64.0452 48.3102 62.94 47.3817 62.94C45.9055 62.94 44.5494 61.7146 44.3436 60.1947C44.2429 59.4511 45.478 54.0673 45.9307 53.2763C46.3369 52.5665 47.1027 52.0132 47.9227 51.8374C48.3262 51.7508 50.6869 51.6989 54.2209 51.6989C60.454 51.6989 60.722 51.7272 61.6353 52.4829C61.9036 52.705 62.231 53.0991 62.3626 53.3588C62.6346 53.8954 63.9239 59.2713 63.9239 59.8691C63.9239 61.4341 62.4095 62.94 60.8359 62.94C59.9073 62.94 59.4634 64.0452 60.1258 64.7079C60.439 65.0212 60.5152 65.0375 61.3204 64.9631C62.4505 64.8585 63.8182 64.1929 64.5624 63.3852C64.8626 63.0593 65.2914 62.4042 65.5153 61.9296C66.1487 60.5866 66.0988 59.5049 65.2399 55.9628C64.8694 54.4349 64.4104 52.865 64.22 52.4741C63.5116 51.02 62.0633 50.0172 60.2555 49.7295L59.3015 49.5775L59.7251 49.0554C61.6454 46.6878 61.8378 43.1738 60.1881 40.6017C59.5893 39.6683 58.305 38.5195 57.3348 38.0498C56.0346 37.4203 54.4166 37.1515 53.1275 37.351ZM17.6604 39.6857C19.4864 40.3233 20.7903 42.0381 21.0038 44.0825C21.214 46.095 20.0028 48.2077 18.1019 49.1439C17.2961 49.5407 17.1586 49.5669 15.8815 49.5669C14.605 49.5669 14.4665 49.5406 13.6627 49.1447C12.5722 48.6076 11.5017 47.4832 11.0859 46.4381C10.8499 45.8452 10.7877 45.4368 10.7852 44.4632C10.7824 43.3498 10.8201 43.1552 11.1911 42.3699C12.3617 39.892 15.0534 38.7752 17.6604 39.6857ZM55.1889 39.4872C56.7989 39.8285 58.0829 40.8537 58.7991 42.3699C59.1701 43.1552 59.2078 43.3498 59.205 44.4632C59.2025 45.4368 59.1403 45.8452 58.9044 46.4381C58.4885 47.4832 57.418 48.6076 56.3275 49.1447C55.5241 49.5404 55.385 49.5669 54.1115 49.5669C52.9056 49.5669 52.6692 49.5278 52.0097 49.2186C51.6011 49.027 50.9575 48.5775 50.5792 48.2197C47.5731 45.3751 49.0053 40.3555 53.0756 39.4708C54.0166 39.2664 54.1519 39.2675 55.1889 39.4872Z" fill="#1298DE"/>
<path fill-rule="evenodd" clip-rule="evenodd" d="M9.74701 3.13745C9.39186 3.20425 8.63325 3.48463 8.06113 3.7605C6.09527 4.70863 4.51555 6.76098 4.13806 8.85765C4.05631 9.31156 4 11.5828 4 14.4253C4 18.7855 4.0235 19.3179 4.25545 20.2256C4.61616 21.6364 5.07463 22.4185 6.19329 23.5314C7.30485 24.6371 8.36786 25.2292 9.68244 25.4747C10.1441 25.5609 10.5835 25.647 10.6588 25.6662C10.7342 25.6854 11.7167 27.1461 12.8425 28.9124C13.9683 30.6787 15.0065 32.2546 15.1496 32.4145C15.4261 32.7233 15.9845 32.7975 16.3918 32.5793C16.5211 32.5101 17.5942 30.9446 18.7764 29.1005L20.9258 25.7476L26.3785 25.697C31.1513 25.6527 31.9196 25.618 32.5413 25.4177C34.7235 24.7147 36.439 23.1127 37.2926 20.9808L37.6423 20.1073L37.6847 14.7452C37.7315 8.82354 37.7067 8.55427 36.9699 7.00351C36.3777 5.75729 35.0366 4.38974 33.8259 3.79758C32.1443 2.97516 32.3831 2.98977 20.8536 3.00359C14.9312 3.0107 10.1126 3.06871 9.74701 3.13745ZM32.449 5.42083C33.4951 5.84321 34.6197 6.91668 35.1542 8.00306L35.5763 8.86075V14.3548V19.8489L35.2153 20.5844C34.4517 22.1401 33.0487 23.2217 31.3937 23.5307C30.9992 23.6044 28.3982 23.6606 25.3848 23.6606C21.0574 23.6606 20.0243 23.6939 19.8169 23.8402C19.6768 23.9389 18.7485 25.3037 17.7541 26.873C16.7597 28.4423 15.917 29.7272 15.8815 29.7285C15.8459 29.7296 15.035 28.502 14.0794 27.0005C13.1238 25.4988 12.2495 24.1561 12.1365 24.0164C11.9856 23.83 11.6311 23.7182 10.8034 23.5958C8.77531 23.2962 7.34799 22.2903 6.54534 20.5951L6.13091 19.7197V14.3576V8.99539L6.53966 8.13227C6.76438 7.65769 7.18565 7.01165 7.47558 6.69689C8.04525 6.0785 9.21609 5.38827 10.0205 5.19639C10.3106 5.12727 14.9852 5.08579 21.1119 5.09794L31.7019 5.11913L32.449 5.42083ZM40.9358 7.25107C40.5431 7.64399 40.5494 8.32596 40.9495 8.73697C41.1954 8.98957 41.415 8.99681 50.6576 9.05999L60.1141 9.1246L60.8525 9.47088C62.2633 10.1324 63.3466 11.4191 63.7287 12.8872C64.0136 13.9813 64.0136 22.6155 63.7287 23.7097C63.471 24.6999 63.0239 25.4388 62.2366 26.1755C61.2251 27.1221 60.3951 27.4386 58.6778 27.5325C57.8079 27.58 57.1573 27.6768 57.0373 27.7764C56.9279 27.8672 56.247 28.8707 55.5241 30.0064C54.8012 31.142 54.1587 32.054 54.0965 32.0329C54.0342 32.0119 53.3855 31.0653 52.655 29.9297C51.8785 28.7227 51.1934 27.7973 51.0064 27.7026C50.7637 27.5799 49.2185 27.5396 44.6165 27.5361L38.5466 27.5314L37.6426 27.2116C36.5106 26.8113 36.2257 26.8107 35.8287 27.208C35.1559 27.8811 35.6129 28.6701 36.9984 29.2279C37.7685 29.5379 37.7971 29.5395 43.9027 29.6039L50.0338 29.6688L51.6791 32.2353C52.5841 33.6469 53.4283 34.8806 53.5551 34.9768C53.848 35.1991 54.3809 35.2085 54.6705 34.9965C54.7936 34.9064 55.6368 33.6709 56.5442 32.2508L58.1942 29.6688L59.2833 29.5834C62.4973 29.3312 65.1462 27.0425 65.8008 23.9522C66.0664 22.6985 66.0664 13.8983 65.8008 12.6446C65.2432 10.012 62.9151 7.66531 60.3337 7.13362C59.8768 7.03956 56.5822 6.99265 50.4218 6.99265C41.3663 6.99265 41.1894 6.99743 40.9358 7.25107ZM11.4962 11.4603C10.2677 11.9935 9.55445 13.0594 9.55742 14.3576C9.5613 16.0984 10.8715 17.3819 12.6528 17.3901C13.3419 17.3933 13.6014 17.3299 14.1013 17.0358C16.0111 15.9126 16.2553 13.4234 14.5954 12.0018C13.7438 11.2726 12.4499 11.0464 11.4962 11.4603ZM19.7615 11.4603C18.5331 11.9935 17.8198 13.0594 17.8228 14.3576C17.8267 16.0984 19.1368 17.3819 20.9182 17.3901C21.6073 17.3933 21.8667 17.3299 22.3667 17.0358C24.2765 15.9126 24.5207 13.4234 22.8608 12.0018C22.0092 11.2726 20.7153 11.0464 19.7615 11.4603ZM28.0269 11.4603C26.7985 11.9935 26.0852 13.0594 26.0881 14.3576C26.092 16.0984 27.4022 17.3819 29.1835 17.3901C29.8727 17.3933 30.1321 17.3299 30.632 17.0358C32.5418 15.9126 32.7861 13.4234 31.1261 12.0018C30.2746 11.2726 28.9806 11.0464 28.0269 11.4603ZM13.1602 13.4482C13.5163 13.6388 13.7223 14.2453 13.5684 14.6501C13.1434 15.7684 11.6196 15.474 11.6196 14.2736C11.6196 13.5674 12.5009 13.0952 13.1602 13.4482ZM21.4256 13.4482C21.7816 13.6388 21.9876 14.2453 21.8338 14.6501C21.4088 15.7684 19.885 15.474 19.885 14.2736C19.885 13.5674 20.7663 13.0952 21.4256 13.4482ZM29.6909 13.4482C30.047 13.6388 30.253 14.2453 30.0992 14.6501C29.6742 15.7684 28.1504 15.474 28.1504 14.2736C28.1504 13.5674 29.0317 13.0952 29.6909 13.4482ZM14.9002 37.3519C11.4546 37.8803 8.90343 40.6424 8.69008 44.0756C8.57966 45.8515 9.16882 47.722 10.2574 49.0509L10.6887 49.5775L9.73474 49.7295C8.49907 49.9261 7.51355 50.4011 6.70407 51.1898C5.81799 52.0533 5.52922 52.7601 4.7484 55.9749C3.89152 59.5033 3.84167 60.5872 4.47487 61.9296C4.69881 62.4042 5.12758 63.0593 5.42784 63.3852C6.17198 64.1929 7.53977 64.8585 8.6698 64.9631C9.47503 65.0375 9.55122 65.0212 9.8644 64.7079C10.5268 64.0452 10.0829 62.94 9.15436 62.94C7.58071 62.94 6.06634 61.4341 6.06634 59.8691C6.06634 59.2713 7.35561 53.8954 7.62759 53.3588C7.75919 53.0991 8.08658 52.705 8.35494 52.4829C9.26826 51.7272 9.53624 51.6989 15.7694 51.6989C19.3033 51.6989 21.664 51.7508 22.0676 51.8374C22.8875 52.0132 23.6534 52.5665 24.0595 53.2763C24.5122 54.0673 25.7473 59.4511 25.6466 60.1947C25.4409 61.7146 24.0847 62.94 22.6086 62.94C21.68 62.94 21.2361 64.0452 21.8985 64.7079C22.2117 65.0212 22.2879 65.0375 23.0931 64.9631C25.8367 64.7093 28.0299 62.0665 27.7157 59.3926C27.572 58.17 26.3333 53.1867 26.0029 52.5022C25.3095 51.0656 23.799 50.0113 22.0313 49.7299L21.0791 49.5783L21.5767 48.919C23.8034 45.9682 23.56 42.0945 20.9831 39.473C19.3682 37.8301 17.051 37.0222 14.9002 37.3519ZM53.1275 37.351C51.4884 37.6047 50.1828 38.2771 49.0071 39.473C46.8621 41.6552 46.3002 44.6946 47.5373 47.4241C47.7455 47.8836 48.1397 48.5563 48.4135 48.919L48.9111 49.5783L47.9589 49.7299C46.1912 50.0113 44.6807 51.0656 43.9873 52.5022C43.657 53.1867 42.4182 58.17 42.2746 59.3926C41.9604 62.0665 44.1535 64.7093 46.8971 64.9631C47.7023 65.0375 47.7785 65.0212 48.0917 64.7079C48.7541 64.0452 48.3102 62.94 47.3817 62.94C45.9055 62.94 44.5494 61.7146 44.3436 60.1947C44.2429 59.4511 45.478 54.0673 45.9307 53.2763C46.3369 52.5665 47.1027 52.0132 47.9227 51.8374C48.3262 51.7508 50.6869 51.6989 54.2209 51.6989C60.454 51.6989 60.722 51.7272 61.6353 52.4829C61.9036 52.705 62.231 53.0991 62.3626 53.3588C62.6346 53.8954 63.9239 59.2713 63.9239 59.8691C63.9239 61.4341 62.4095 62.94 60.8359 62.94C59.9073 62.94 59.4634 64.0452 60.1258 64.7079C60.439 65.0212 60.5152 65.0375 61.3204 64.9631C62.4505 64.8585 63.8182 64.1929 64.5624 63.3852C64.8626 63.0593 65.2914 62.4042 65.5153 61.9296C66.1487 60.5866 66.0988 59.5049 65.2399 55.9628C64.8694 54.4349 64.4104 52.865 64.22 52.4741C63.5116 51.02 62.0633 50.0172 60.2555 49.7295L59.3015 49.5775L59.7251 49.0554C61.6454 46.6878 61.8378 43.1738 60.1881 40.6017C59.5893 39.6683 58.305 38.5195 57.3348 38.0498C56.0346 37.4203 54.4166 37.1515 53.1275 37.351ZM17.6604 39.6857C19.4864 40.3233 20.7903 42.0381 21.0038 44.0825C21.214 46.095 20.0028 48.2077 18.1019 49.1439C17.2961 49.5407 17.1586 49.5669 15.8815 49.5669C14.605 49.5669 14.4665 49.5406 13.6627 49.1447C12.5722 48.6076 11.5017 47.4832 11.0859 46.4381C10.8499 45.8452 10.7877 45.4368 10.7852 44.4632C10.7824 43.3498 10.8201 43.1552 11.1911 42.3699C12.3617 39.892 15.0534 38.7752 17.6604 39.6857ZM55.1889 39.4872C56.7989 39.8285 58.0829 40.8537 58.7991 42.3699C59.1701 43.1552 59.2078 43.3498 59.205 44.4632C59.2025 45.4368 59.1403 45.8452 58.9044 46.4381C58.4885 47.4832 57.418 48.6076 56.3275 49.1447C55.5241 49.5404 55.385 49.5669 54.1115 49.5669C52.9056 49.5669 52.6692 49.5278 52.0097 49.2186C51.6011 49.027 50.9575 48.5775 50.5792 48.2197C47.5731 45.3751 49.0053 40.3555 53.0756 39.4708C54.0166 39.2664 54.1519 39.2675 55.1889 39.4872Z" stroke="#1298DE" mask="url(#path-1-outside-1_1_153)"/>
</svg>
